<?xml version="1.0" standalone="no"?>
<!DOCTYPE svg PUBLIC "-//W3C//DTD SVG 20010904//EN"
 "http://www.w3.org/TR/2001/REC-SVG-20010904/DTD/svg10.dtd">
<svg version="1.0" xmlns="http://www.w3.org/2000/svg"
 width="800.000000pt" height="800.000000pt" viewBox="0 0 800.000000 800.000000"
 preserveAspectRatio="xMidYMid meet">
<metadata>
Created by potrace 1.11, written by Peter Selinger 2001-2013
</metadata>
<g transform="translate(0.000000,800.000000) scale(0.100000,-0.100000)"
fill="#000000" stroke="none">
<path d="M4140 3815 l0 -3675 470 0 470 0 0 3675 0 3675 -470 0 -470 0 0
-3675z"/>
<path d="M2920 2640 l0 -2500 470 0 470 0 0 2500 0 2500 -470 0 -470 0 0
-2500z"/>
<path d="M5350 1785 l0 -1645 470 0 470 0 0 1645 0 1645 -470 0 -470 0 0
-1645z"/>
<path d="M1710 970 l0 -830 470 0 470 0 0 830 0 830 -470 0 -470 0 0 -830z"/>
<path d="M6570 565 l0 -425 470 0 470 0 0 425 0 425 -470 0 -470 0 0 -425z"/>
<path d="M490 505 l0 -365 470 0 470 0 0 365 0 365 -470 0 -470 0 0 -365z"/>
</g>
</svg>
