<?xml version="1.0" encoding="UTF-8" standalone="no"?>
<svg
   xmlns:dc="http://purl.org/dc/elements/1.1/"
   xmlns:cc="http://creativecommons.org/ns#"
   xmlns:rdf="http://www.w3.org/1999/02/22-rdf-syntax-ns#"
   xmlns:svg="http://www.w3.org/2000/svg"
   xmlns="http://www.w3.org/2000/svg"
   xmlns:xlink="http://www.w3.org/1999/xlink"
   id="svg923"
   width="864pt"
   viewBox="0 0 864 288"
   version="1.1"
   height="288pt">
  <metadata
     id="metadata927">
    <rdf:RDF>
      <cc:Work
         rdf:about="">
        <dc:format>image/svg+xml</dc:format>
        <dc:type
           rdf:resource="http://purl.org/dc/dcmitype/StillImage" />
        <dc:title></dc:title>
      </cc:Work>
    </rdf:RDF>
  </metadata>
  <defs
     id="defs874">
    <style
       id="style872"
       type="text/css">
*{stroke-linecap:butt;stroke-linejoin:round;white-space:pre;}
  </style>
  </defs>
  <g
     id="figure_1">
    <g
       id="axes_1">
      <g
         id="patch_1">
        <path
           id="path876"
           style="fill:none;"
           d="M 10 234.08  L 439.8519 234.08  L 439.8519 10  L 10 10  z " />
      </g>
      <g
         id="patch_2">
        <path
           id="path879"
           style="fill:#4878d0;"
           d="M 29.538723 234.08  L 81.817066 234.08  L 81.817066 211.672  L 29.538723 211.672  z "
           clip-path="url(#p4996303e50)" />
      </g>
      <g
         id="patch_3">
        <path
           id="path882"
           style="fill:#ee854a;"
           d="M 97.237945 234.08  L 149.516288 234.08  L 149.516288 184.284444  L 97.237945 184.284444  z "
           clip-path="url(#p4996303e50)" />
      </g>
      <g
         id="patch_4">
        <path
           id="path885"
           style="fill:#6acc64;"
           d="M 164.937167 234.08  L 217.215511 234.08  L 217.215511 79.713778  L 164.937167 79.713778  z "
           clip-path="url(#p4996303e50)" />
      </g>
      <g
         id="patch_5">
        <path
           id="path888"
           style="fill:#d65f5f;"
           d="M 232.636389 234.08  L 284.914733 234.08  L 284.914733 8.755111  L 232.636389 8.755111  z "
           clip-path="url(#p4996303e50)" />
      </g>
      <g
         id="patch_6">
        <path
           id="path891"
           style="fill:#956cb4;"
           d="M 300.335611 234.08  L 352.613955 234.08  L 352.613955 133.244  L 300.335611 133.244  z "
           clip-path="url(#p4996303e50)" />
      </g>
      <g
         id="patch_7">
        <path
           id="path894"
           style="fill:#8c613c;"
           d="M 368.034834 234.08  L 420.313177 234.08  L 420.313177 207.937333  L 368.034834 207.937333  z "
           clip-path="url(#p4996303e50)" />
      </g>
      <g
         id="matplotlib.axis_1" />
      <g
         id="matplotlib.axis_2" />
      <g
         id="text_1">
        <!-- arch -->
        <defs
           id="defs903">
          <path
             id="Roboto-Regular-97"
             d="M 39.453125 0  Q 38.671875 1.5625 38.1875 5.5625  Q 31.890625 -0.984375 23.140625 -0.984375  Q 15.328125 -0.984375 10.328125 3.4375  Q 5.328125 7.859375 5.328125 14.65625  Q 5.328125 22.90625 11.59375 27.46875  Q 17.875 32.03125 29.25 32.03125  L 38.03125 32.03125  L 38.03125 36.1875  Q 38.03125 40.921875 35.203125 43.71875  Q 32.375 46.53125 26.859375 46.53125  Q 22.015625 46.53125 18.75 44.09375  Q 15.484375 41.65625 15.484375 38.1875  L 6.390625 38.1875  Q 6.390625 42.140625 9.203125 45.828125  Q 12.015625 49.515625 16.8125 51.65625  Q 21.625 53.8125 27.390625 53.8125  Q 36.53125 53.8125 41.703125 49.234375  Q 46.875 44.671875 47.078125 36.671875  L 47.078125 12.359375  Q 47.078125 5.078125 48.921875 0.78125  L 48.921875 0  z M 24.46875 6.890625  Q 28.71875 6.890625 32.515625 9.078125  Q 36.328125 11.28125 38.03125 14.796875  L 38.03125 25.640625  L 30.953125 25.640625  Q 14.359375 25.640625 14.359375 15.921875  Q 14.359375 11.671875 17.1875 9.28125  Q 20.015625 6.890625 24.46875 6.890625  z " />
          <path
             id="Roboto-Regular-114"
             d="M 32.375 44.734375  Q 30.328125 45.0625 27.9375 45.0625  Q 19.046875 45.0625 15.875 37.5  L 15.875 0  L 6.84375 0  L 6.84375 52.828125  L 15.625 52.828125  L 15.765625 46.734375  Q 20.21875 53.8125 28.375 53.8125  Q 31 53.8125 32.375 53.125  z " />
          <path
             id="Roboto-Regular-99"
             d="M 28.03125 6.390625  Q 32.859375 6.390625 36.46875 9.3125  Q 40.09375 12.25 40.484375 16.65625  L 49.03125 16.65625  Q 48.78125 12.109375 45.890625 8  Q 43.015625 3.90625 38.203125 1.453125  Q 33.40625 -0.984375 28.03125 -0.984375  Q 17.234375 -0.984375 10.859375 6.21875  Q 4.5 13.421875 4.5 25.921875  L 4.5 27.4375  Q 4.5 35.15625 7.328125 41.15625  Q 10.15625 47.171875 15.453125 50.484375  Q 20.75 53.8125 27.984375 53.8125  Q 36.859375 53.8125 42.75 48.484375  Q 48.640625 43.171875 49.03125 34.671875  L 40.484375 34.671875  Q 40.09375 39.796875 36.59375 43.09375  Q 33.109375 46.390625 27.984375 46.390625  Q 21.09375 46.390625 17.3125 41.421875  Q 13.53125 36.46875 13.53125 27.09375  L 13.53125 25.390625  Q 13.53125 16.265625 17.28125 11.328125  Q 21.046875 6.390625 28.03125 6.390625  z " />
          <path
             id="Roboto-Regular-104"
             d="M 15.875 46.4375  Q 21.875 53.8125 31.5 53.8125  Q 48.25 53.8125 48.390625 34.90625  L 48.390625 0  L 39.359375 0  L 39.359375 34.96875  Q 39.3125 40.671875 36.75 43.40625  Q 34.1875 46.140625 28.765625 46.140625  Q 24.359375 46.140625 21.03125 43.796875  Q 17.71875 41.453125 15.875 37.640625  L 15.875 0  L 6.84375 0  L 6.84375 75  L 15.875 75  z " />
        </defs>
        <g
           id="g913"
           transform="translate(434.400497 234.08)scale(2.16 -2.16)"
           style="fill:#757575;">
          <use
             id="use905"
             xlink:href="#Roboto-Regular-97" />
          <use
             id="use907"
             xlink:href="#Roboto-Regular-114"
             x="54.394531" />
          <use
             id="use909"
             xlink:href="#Roboto-Regular-99"
             x="88.232422" />
          <use
             id="use911"
             xlink:href="#Roboto-Regular-104"
             x="140.576172" />
        </g>
      </g>
    </g>
  </g>
  <defs
     id="defs921">
    <clipPath
       id="p4996303e50">
      <rect
         id="rect918"
         y="10"
         x="10"
         width="429.8519"
         height="224.08" />
    </clipPath>
  </defs>
</svg>
