<?xml version="1.0" encoding="utf-8" standalone="no"?>
<!DOCTYPE svg PUBLIC "-//W3C//DTD SVG 1.1//EN"
  "http://www.w3.org/Graphics/SVG/1.1/DTD/svg11.dtd">
<!-- Created with matplotlib (https://matplotlib.org/) -->
<svg height="576pt" version="1.1" viewBox="0 0 576 576" width="576pt" xmlns="http://www.w3.org/2000/svg" xmlns:xlink="http://www.w3.org/1999/xlink">
 <defs>
  <style type="text/css">
*{stroke-linecap:butt;stroke-linejoin:round;white-space:pre;}
  </style>
 </defs>
 <g id="figure_1">
  <g id="axes_1">
   <g id="patch_1">
    <path d="M 10 566 
L 566 566 
L 566 10 
L 10 10 
z
" style="fill:none;"/>
   </g>
   <g id="patch_2">
    <path clip-path="url(#p48799da906)" d="M 35.272727 566 
L 102.893131 566 
L 102.893131 513.340174 
L 35.272727 513.340174 
z
" style="fill:#4878d0;"/>
   </g>
   <g id="patch_3">
    <path clip-path="url(#p48799da906)" d="M 122.839556 566 
L 190.459959 566 
L 190.459959 446.052618 
L 122.839556 446.052618 
z
" style="fill:#ee854a;"/>
   </g>
   <g id="patch_4">
    <path clip-path="url(#p48799da906)" d="M 210.406384 566 
L 278.026788 566 
L 278.026788 206.157853 
L 210.406384 206.157853 
z
" style="fill:#6acc64;"/>
   </g>
   <g id="patch_5">
    <path clip-path="url(#p48799da906)" d="M 297.973212 566 
L 365.593616 566 
L 365.593616 36.47619 
L 297.973212 36.47619 
z
" style="fill:#d65f5f;"/>
   </g>
   <g id="patch_6">
    <path clip-path="url(#p48799da906)" d="M 385.540041 566 
L 453.160444 566 
L 453.160444 329.030781 
L 385.540041 329.030781 
z
" style="fill:#956cb4;"/>
   </g>
   <g id="patch_7">
    <path clip-path="url(#p48799da906)" d="M 473.106869 566 
L 540.727273 566 
L 540.727273 504.563536 
L 473.106869 504.563536 
z
" style="fill:#8c613c;"/>
   </g>
   <g id="matplotlib.axis_1"/>
   <g id="matplotlib.axis_2"/>
  </g>
 </g>
 <defs>
  <clipPath id="p48799da906">
   <rect height="556" width="556" x="10" y="10"/>
  </clipPath>
 </defs>
</svg>
